<svg data-v-fde0c5aa="" xmlns="http://www.w3.org/2000/svg" viewBox="0 0 300 300" class="font"><!----><defs data-v-fde0c5aa=""><!----></defs><rect data-v-fde0c5aa="" fill="#D83950" x="0" y="0" width="300px" height="300px" class="logo-background-square"></rect><defs data-v-fde0c5aa=""><!----></defs><g data-v-fde0c5aa="" id="995f2299-46a7-4e1e-a195-12497a0d7da2" fill="#69144D" transform="matrix(1.902455907654505,0,0,1.902455907654505,39.06779658710606,136.2452438080691)"><path d="M4.41 1.29C6.79 1.29 7.88 3.12 7.88 5.50C7.88 7.88 6.79 9.91 4.41 9.91L3.19 9.91L3.19 1.29ZM4.37 10.50C7.88 10.50 9.52 8.25 9.52 5.53C9.52 2.81 7.91 0.70 4.41 0.70L0.59 0.70L0.49 1.29L1.71 1.75L1.71 9.45L0.50 9.91L0.60 10.50ZM16.51 5.78C16.51 4.34 15.41 3.81 13.79 3.81C11.83 3.81 10.43 5.07 10.43 7.22C10.43 9.30 11.59 10.65 14.07 10.65C14.98 10.65 15.88 10.37 16.48 9.83L16.16 9.37C15.58 9.73 14.90 10.00 14.15 10.00C12.88 10.00 12.17 9.14 11.97 7.87C14.34 7.87 16.51 7.49 16.51 5.78ZM11.91 7.11C11.91 5.52 12.53 4.33 13.73 4.33C14.70 4.33 15.19 4.73 15.19 5.61C15.19 6.65 13.75 7.36 11.91 7.38ZM18.87 7.53C18.87 5.42 19.67 4.33 20.85 4.33C21.34 4.33 21.78 4.47 22.18 4.59L22.18 7.07C22.18 9.04 21.14 9.84 20.44 9.84C19.60 9.84 18.87 9.34 18.87 7.53ZM23.49 3.96L23.00 3.81L22.18 4.03C21.83 3.89 21.24 3.81 20.82 3.81C18.69 3.81 17.42 5.26 17.42 7.60C17.42 9.65 18.47 10.50 20.15 10.50C21.31 10.50 22.13 9.74 22.46 8.75L22.18 10.35L22.18 11.40C22.18 12.98 21.29 13.36 20.31 13.36C19.28 13.36 18.72 12.73 18.72 12.15C18.72 11.80 18.96 11.40 19.38 11.17L19.10 10.75C18.51 10.96 17.81 11.52 17.81 12.24C17.81 13.40 18.98 14 20.31 14C21.98 14 23.49 13.36 23.49 11.24ZM30.90 5.78C30.90 4.34 29.81 3.81 28.18 3.81C26.22 3.81 24.82 5.07 24.82 7.22C24.82 9.30 25.98 10.65 28.46 10.65C29.37 10.65 30.27 10.37 30.87 9.83L30.55 9.37C29.97 9.73 29.29 10.00 28.55 10.00C27.27 10.00 26.56 9.14 26.36 7.87C28.73 7.87 30.90 7.49 30.90 5.78ZM26.31 7.11C26.31 5.52 26.92 4.33 28.13 4.33C29.09 4.33 29.58 4.73 29.58 5.61C29.58 6.65 28.14 7.36 26.31 7.38ZM33.96 4.47C33.96 4.47 33.98 3.81 33.21 3.81C32.75 3.81 32.13 3.91 31.81 3.96L31.81 4.47L32.65 4.47L32.65 10.50L33.96 10.50L33.96 7.39C33.96 5.32 35 4.47 35.71 4.47C36.41 4.47 36.85 5.05 36.85 5.95L36.85 9.38C36.85 10.36 37.53 10.65 38.05 10.65C38.43 10.65 38.79 10.60 38.99 10.50L38.99 10.00C38.56 10.00 38.16 9.79 38.16 9.35L38.16 6.30C38.16 4.76 37.52 3.81 35.99 3.81C35.27 3.81 34.31 4.45 33.96 5.43ZM46.05 5.78C46.05 4.34 44.95 3.81 43.33 3.81C41.37 3.81 39.97 5.07 39.97 7.22C39.97 9.30 41.13 10.65 43.61 10.65C44.52 10.65 45.42 10.37 46.02 9.83L45.70 9.37C45.12 9.73 44.44 10.00 43.69 10.00C42.42 10.00 41.71 9.14 41.51 7.87C43.88 7.87 46.05 7.49 46.05 5.78ZM41.45 7.11C41.45 5.52 42.07 4.33 43.27 4.33C44.24 4.33 44.73 4.73 44.73 5.61C44.73 6.65 43.29 7.36 41.45 7.38ZM47.81 4.47L47.81 10.50L49.13 10.50L49.13 7.39C49.13 5.42 50.25 4.47 50.92 4.47L51.31 5.36C51.76 5.36 52.11 5.04 52.11 4.62C52.11 4.20 51.84 3.81 51.11 3.81C50.39 3.81 49.49 4.42 49.13 5.43L49.13 4.66C49.13 4.66 49.14 3.81 48.37 3.81C47.91 3.81 47.35 3.91 47.03 3.96L47.03 4.47ZM55.47 10.65C56.15 10.65 56.87 10.28 57.19 9.60C57.39 10.39 57.93 10.65 58.42 10.65C58.69 10.65 58.97 10.61 59.19 10.50L59.19 10.00C58.76 10.00 58.42 9.79 58.42 9.35L58.42 3.96L57.93 3.81L57.11 4.03C56.76 3.85 56.31 3.81 55.89 3.81C54.12 3.81 52.68 4.90 52.68 7.57C52.68 9.83 54.10 10.65 55.47 10.65ZM57.11 7.77C57.11 9.37 56.31 10.00 55.61 10.00C54.84 10.00 54.04 9.45 54.04 7.50C54.04 5.08 55.06 4.33 55.96 4.33C56.38 4.33 56.66 4.40 57.11 4.65ZM61.75 2.34L61.11 2.18L60.52 3.65L59.53 3.96L59.63 4.47L60.44 4.47L60.44 8.85C60.44 9.87 61.00 10.65 62.29 10.65C63.08 10.65 63.49 10.33 63.95 9.84L63.63 9.46C63.34 9.79 63.03 10.00 62.52 10.00C62.10 10.00 61.75 9.62 61.75 8.96L61.75 4.47L63.49 4.47L63.59 3.96L61.75 3.96ZM70.52 5.78C70.52 4.34 69.43 3.81 67.80 3.81C65.84 3.81 64.44 5.07 64.44 7.22C64.44 9.30 65.60 10.65 68.08 10.65C68.99 10.65 69.89 10.37 70.49 9.83L70.17 9.37C69.59 9.73 68.91 10.00 68.17 10.00C66.89 10.00 66.18 9.14 65.98 7.87C68.35 7.87 70.52 7.49 70.52 5.78ZM65.93 7.11C65.93 5.52 66.54 4.33 67.75 4.33C68.71 4.33 69.20 4.73 69.20 5.61C69.20 6.65 67.76 7.36 65.93 7.38ZM80.05 0.46C76.92 0.46 74.93 2.73 74.93 5.60C74.93 8.19 76.41 10.74 80.05 10.74C81.20 10.74 82.43 10.42 83.13 9.91L83.13 6.96L84.35 6.48L84.24 5.89L80.53 5.89L80.43 6.48L81.63 6.96L81.63 9.72C81.12 9.84 80.49 9.91 80.04 9.91C77.27 9.91 76.57 7.69 76.57 5.53C76.57 3.26 77.50 1.15 80.05 1.15C80.47 1.15 81.12 1.22 81.59 1.32L82.03 3.15C82.71 3.15 83.27 2.73 83.27 2.04C83.27 0.66 81.12 0.46 80.05 0.46ZM87.92 10.65C88.61 10.65 89.32 10.28 89.64 9.60C89.84 10.39 90.38 10.65 90.87 10.65C91.14 10.65 91.42 10.61 91.64 10.50L91.64 10.00C91.21 10.00 90.87 9.79 90.87 9.35L90.87 3.96L90.38 3.81L89.56 4.03C89.21 3.85 88.76 3.81 88.34 3.81C86.58 3.81 85.13 4.90 85.13 7.57C85.13 9.83 86.55 10.65 87.92 10.65ZM89.56 7.77C89.56 9.37 88.76 10.00 88.06 10.00C87.29 10.00 86.49 9.45 86.49 7.50C86.49 5.08 87.51 4.33 88.41 4.33C88.83 4.33 89.11 4.40 89.56 4.65ZM96.39 3.81C95.65 3.81 94.78 4.38 94.49 5.43L94.49 4.47C94.49 4.47 94.50 3.81 93.73 3.81C93.27 3.81 92.65 3.91 92.33 3.96L92.33 4.47L93.17 4.47L93.17 10.50L94.49 10.50L94.49 7.39C94.49 5.42 95.35 4.47 96.05 4.47C96.71 4.47 97.22 5.05 97.22 5.89L97.22 10.50L98.53 10.50L98.53 7C98.53 5.25 99.39 4.47 100.07 4.47C100.86 4.47 101.25 5.18 101.25 6.20L101.25 9.38C101.25 10.36 101.93 10.65 102.45 10.65C102.83 10.65 103.19 10.60 103.39 10.50L103.39 10.00C102.96 10.00 102.56 9.79 102.56 9.35L102.56 6.31C102.56 4.83 101.96 3.81 100.38 3.81C99.60 3.81 98.70 4.38 98.39 5.40C98.20 4.37 97.57 3.81 96.39 3.81ZM110.45 5.78C110.45 4.34 109.35 3.81 107.73 3.81C105.77 3.81 104.37 5.07 104.37 7.22C104.37 9.30 105.53 10.65 108.01 10.65C108.92 10.65 109.82 10.37 110.42 9.83L110.10 9.37C109.52 9.73 108.84 10.00 108.09 10.00C106.82 10.00 106.11 9.14 105.91 7.87C108.28 7.87 110.45 7.49 110.45 5.78ZM105.85 7.11C105.85 5.52 106.47 4.33 107.67 4.33C108.64 4.33 109.13 4.73 109.13 5.61C109.13 6.65 107.69 7.36 105.85 7.38ZM113.92 4.33C114.31 4.33 114.63 4.40 114.88 4.49L115.32 5.64C115.71 5.64 116.03 5.32 116.03 4.94C116.03 4.16 115.02 3.81 113.99 3.81C112.46 3.81 111.47 4.54 111.47 5.67C111.47 6.78 112.31 7.25 113.25 7.69C114.03 8.04 115.01 8.37 115.01 9.06C115.01 9.73 114.37 10.12 113.47 10.12C113.18 10.12 112.70 9.98 112.43 9.81L112.10 8.86C111.73 8.86 111.43 9.13 111.43 9.49C111.43 10.29 112.17 10.65 113.58 10.65C115.21 10.65 116.13 9.88 116.13 8.69C116.13 7.46 115.07 6.99 114.07 6.57C113.41 6.29 112.57 5.94 112.57 5.19C112.57 4.72 113.09 4.33 113.92 4.33Z"></path></g><!----><!----></svg>